<svg width="0" height="0" class="hidden">
  <symbol fill="none" xmlns="http://www.w3.org/2000/svg" viewBox="0 0 24 24" id="icon-tag">
    <path d="M19 21L12 16L5 21V5C5 4.46957 5.21071 3.96086 5.58579 3.58579C5.96086 3.21071 6.46957 3 7 3H17C17.5304 3 18.0391 3.21071 18.4142 3.58579C18.7893 3.96086 19 4.46957 19 5V21Z" stroke="" stroke-width="1" stroke-linecap="round" stroke-linejoin="round"></path>
  </symbol>
  <symbol fill="none" xmlns="http://www.w3.org/2000/svg" viewBox="0 0 24 24" id="icon-category">
    <circle cx="17" cy="17" r="3" stroke="" stroke-width="1"/>
    <path d="M4 19V15C4 14.4477 4.44772 14 5 14H9C9.55228 14 10 14.4477 10 15V19C10 19.5523 9.55228 20 9 20H5C4.44772 20 4 19.5523 4 19Z" stroke="" stroke-width="1"/>
    <path d="M4 9V5C4 4.44772 4.44772 4 5 4H9C9.55228 4 10 4.44772 10 5V9C10 9.55228 9.55228 10 9 10H5C4.44772 10 4 9.55228 4 9Z" stroke="" stroke-width="1"/>
    <path d="M14 9V5C14 4.44772 14.4477 4 15 4H19C19.5523 4 20 4.44772 20 5V9C20 9.55228 19.5523 10 19 10H15C14.4477 10 14 9.55228 14 9Z" stroke="" stroke-width="1"/>
  </symbol>
  <symbol fill="none" xmlns="http://www.w3.org/2000/svg" viewBox="0 0 24 24" id="icon-user">
    <path d="M20 21V19C20 17.9391 19.5786 16.9217 18.8284 16.1716C18.0783 15.4214 17.0609 15 16 15H8C6.93913 15 5.92172 15.4214 5.17157 16.1716C4.42143 16.9217 4 17.9391 4 19V21" stroke="" stroke-width="1" stroke-linecap="round" stroke-linejoin="round"></path>
    <path d="M12 11C14.2091 11 16 9.20914 16 7C16 4.79086 14.2091 3 12 3C9.79086 3 8 4.79086 8 7C8 9.20914 9.79086 11 12 11Z" stroke="" stroke-width="1" stroke-linecap="round" stroke-linejoin="round"></path>
  </symbol>
  <symbol fill="none" xmlns="http://www.w3.org/2000/svg" viewBox="0 0 24 24" id="icon-post">
    <path d="M11 4H4C3.46957 4 2.96086 4.21071 2.58579 4.58579C2.21071 4.96086 2 5.46957 2 6V20C2 20.5304 2.21071 21.0391 2.58579 21.4142C2.96086 21.7893 3.46957 22 4 22H18C18.5304 22 19.0391 21.7893 19.4142 21.4142C19.7893 21.0391 20 20.5304 20 20V13" stroke="" stroke-width="" stroke-linecap="round" stroke-linejoin="round"></path>
    <path d="M18.5 2.50023C18.8978 2.1024 19.4374 1.87891 20 1.87891C20.5626 1.87891 21.1022 2.1024 21.5 2.50023C21.8978 2.89805 22.1213 3.43762 22.1213 4.00023C22.1213 4.56284 21.8978 5.1024 21.5 5.50023L12 15.0002L8 16.0002L9 12.0002L18.5 2.50023Z" stroke="" stroke-width="" stroke-linecap="round" stroke-linejoin="round"></path>
  </symbol>
  <symbol fill="none" xmlns="http://www.w3.org/2000/svg" viewBox="0 0 25 25" id="icon-logout">
    <path d="M9.2959 21.5586H5.2959C4.76547 21.5586 4.25676 21.3479 3.88168 20.9728C3.50661 20.5977 3.2959 20.089 3.2959 19.5586V5.55859C3.2959 5.02816 3.50661 4.51945 3.88168 4.14438C4.25676 3.76931 4.76547 3.55859 5.2959 3.55859H9.2959" stroke="" stroke-width="1" stroke-linecap="round" stroke-linejoin="round"></path>
    <path d="M16.2959 17.5586L21.2959 12.5586L16.2959 7.55859" stroke="" stroke-width="1" stroke-linecap="round" stroke-linejoin="round"></path>
    <path d="M21.2959 12.5586H9.2959" stroke="" stroke-width="1" stroke-linecap="round" stroke-linejoin="round"></path>
  </symbol>
  <symbol fill="none" xmlns="http://www.w3.org/2000/svg" viewBox="0 0 25 25" id="icon-search">
    <path d="M11 19C15.4183 19 19 15.4183 19 11C19 6.58172 15.4183 3 11 3C6.58172 3 3 6.58172 3 11C3 15.4183 6.58172 19 11 19Z" stroke="" strokeWidth="2" strokeLinejoin="round"/>
    <path d="M20.9999 21L16.6499 16.65" stroke="" strokeWidth="2" strokeLinejoin="round" />
  </symbol>
  <symbol fill="" xmlns="http://www.w3.org/2000/svg" viewBox="0 0 25 25" id="icon-chevron">
     <path d="M6.19043 9.36914L12.1904 15.3691L18.1904 9.36914" stroke="" strokeWidth="2" strokeLinecap="round"  strokeLinejoin="round" />
  </symbol>
    <symbol fill="none" xmlns="http://www.w3.org/2000/svg" viewBox="0 0 25 25" id="icon-close">
    <path d="M12.1611 22.064C17.684 22.064 22.1611 17.5868 22.1611 12.064C22.1611 6.54112 17.684 2.06396 12.1611 2.06396C6.63829 2.06396 2.16113 6.54112 2.16113 12.064C2.16113 17.5868 6.63829 22.064 12.1611 22.064Z" stroke="" stroke-width="1" stroke-linecap="round" stroke-linejoin="round"></path>
    <path d="M15.1611 9.06396L9.16113 15.064" stroke="" stroke-width="1" stroke-linecap="round" stroke-linejoin="round"></path>
    <path d="M9.16113 9.06396L15.1611 15.064" stroke="" stroke-width="1" stroke-linecap="round" stroke-linejoin="round"></path>
  </symbol>
  <symbol fill="none" xmlns="http://www.w3.org/2000/svg" viewBox="0 0 24 24" id="icon-trash">
    <path d="M3 6H5H21" stroke="" stroke-width="" stroke-linecap="round" stroke-linejoin="round"></path>
    <path d="M19 6V20C19 20.5304 18.7893 21.0391 18.4142 21.4142C18.0391 21.7893 17.5304 22 17 22H7C6.46957 22 5.96086 21.7893 5.58579 21.4142C5.21071 21.0391 5 20.5304 5 20V6M8 6V4C8 3.46957 8.21071 2.96086 8.58579 2.58579C8.96086 2.21071 9.46957 2 10 2H14C14.5304 2 15.0391 2.21071 15.4142 2.58579C15.7893 2.96086 16 3.46957 16 4V6" stroke="" stroke-width="" stroke-linecap="round" stroke-linejoin="round"></path>
    <path d="M10 11V17" stroke="" stroke-width="" stroke-linecap="round" stroke-linejoin="round"></path>
    <path d="M14 11V17" stroke="" stroke-width="" stroke-linecap="round" stroke-linejoin="round"></path>
  </symbol>
  <symbol fill="none" xmlns="http://www.w3.org/2000/svg" viewBox="0 0 32 33" id="icon-email">
    <path d="M19 24.75H4L3.997 9.656L15.431 17.572C15.5982 17.6877 15.7967 17.7497 16 17.7497C16.2033 17.7497 16.4018 17.6877 16.569 17.572L28 9.66V18.75H30V8.75C29.9992 8.21981 29.7882 7.71156 29.4133 7.33666C29.0384 6.96176 28.5302 6.75079 28 6.75H4C3.46973 6.75053 2.96133 6.96141 2.58637 7.33637C2.21141 7.71133 2.00053 8.21973 2 8.75V24.75C2.00079 25.2802 2.21176 25.7884 2.58666 26.1633C2.96156 26.5382 3.46981 26.7492 4 26.75H19V24.75ZM25.799 8.75L16 15.534L6.201 8.75H25.799Z" fill="#FF9900"></path>
    <path d="M26 28.75C28.2091 28.75 30 26.9591 30 24.75C30 22.5409 28.2091 20.75 26 20.75C23.7909 20.75 22 22.5409 22 24.75C22 26.9591 23.7909 28.75 26 28.75Z" fill="#FF9900"></path>
  </symbol>
  <symbol fill="none" xmlns="http://www.w3.org/2000/svg" viewBox="0 0 32 33" id="icon-phone">
    <path d="M26 2.75H30V6.75H26V2.75ZM26 8.75H30V12.75H26V8.75ZM20 2.75H24V6.75H20V2.75ZM20 8.75H24V12.75H20V8.75ZM25 30.75H24.83C5.18004 29.62 2.39004 13.04 2.00004 7.98C1.93908 7.18675 2.19572 6.40177 2.7135 5.79772C3.23128 5.19368 3.96779 4.82004 4.76104 4.759C4.84037 4.753 4.92004 4.75 5.00004 4.75H10.27C10.6706 4.74961 11.062 4.86951 11.3937 5.09416C11.7253 5.31881 11.9818 5.63787 12.13 6.01L13.65 9.75C13.7964 10.1135 13.8327 10.5121 13.7545 10.8961C13.6763 11.2801 13.4869 11.6327 13.21 11.91L11.08 14.06C11.4114 15.9513 12.3164 17.695 13.6724 19.0545C15.0283 20.414 16.7696 21.3237 18.66 21.66L20.83 19.51C21.1115 19.2362 21.4674 19.0512 21.8533 18.9783C22.2392 18.9054 22.638 18.9477 23 19.1L26.77 20.61C27.1366 20.7629 27.4493 21.0214 27.6683 21.3527C27.8874 21.6839 28.0028 22.0729 28 22.47V27.75C28 28.5456 27.684 29.3087 27.1214 29.8713C26.5587 30.4339 25.7957 30.75 25 30.75ZM5.00004 6.75C4.86871 6.74961 4.7386 6.77508 4.61712 6.82497C4.49565 6.87486 4.38519 6.94819 4.29205 7.04077C4.19891 7.13335 4.12492 7.24337 4.0743 7.36454C4.02368 7.48572 3.99743 7.61568 3.99704 7.747C3.99704 7.775 3.99704 7.802 4.00004 7.83C4.46004 13.75 7.41004 27.75 24.94 28.75C25.2047 28.7659 25.4648 28.676 25.6632 28.5001C25.8616 28.3242 25.9821 28.0767 25.998 27.812L26 27.75V22.47L22.23 20.96L19.36 23.81L18.88 23.75C10.18 22.66 9.00004 13.96 9.00004 13.87L8.94003 13.39L11.78 10.52L10.28 6.75H5.00004Z" fill="#FF9900"></path>
  </symbol>
  <symbol fill="none" xmlns="http://www.w3.org/2000/svg" viewBox="0 0 32 32" id="icon-record">
    <path d="M28.2177 23.3215L21.7692 25.3578L20.6541 25.2609C20.6056 23.273 18.9571 21.673 16.9692 21.673H14.1571C12.4116 20.4124 10.2298 19.6851 8.04801 19.6851H6.44801V18.5215C6.44801 18.2306 6.25407 18.0366 5.96316 18.0366H0.969223C0.678314 18.0366 0.484375 18.2306 0.484375 18.5215V28.6063C0.484375 28.8972 0.678314 29.0912 0.969223 29.0912H5.91468C6.20559 29.0912 6.39953 28.8972 6.39953 28.6063V27.7821L15.1268 30.4003C18.0359 31.273 19.0056 30.2548 31.1753 26.1336C31.3692 26.0851 31.5147 25.8912 31.5147 25.6972C31.5147 24.0003 29.8177 22.7881 28.2177 23.3215ZM5.42983 28.17H1.45407V19.1033H5.42983V28.17ZM15.4177 29.5275L6.39953 26.8124V20.7033H7.99953C10.0359 20.7033 12.0238 21.3821 13.6238 22.5942C13.7207 22.6427 13.8177 22.6912 13.9147 22.6912H16.8723C18.2783 22.6912 19.4904 23.7578 19.5874 25.2124L13.9147 24.776C13.6723 24.776 13.4298 24.97 13.3813 25.2124C13.3813 25.4548 13.5753 25.6972 13.8177 25.7457L21.6723 26.3275H21.8662L28.5086 24.2427C29.4298 23.9518 30.351 24.5336 30.545 25.4063C19.7813 28.8487 18.3753 30.4003 15.4177 29.5275Z" fill="#FF9900"></path>
    <path d="M24.4842 7.36983C24.3872 7.07892 24.0963 6.88498 23.8054 6.88498H18.472L16.7751 1.74559C16.6781 1.45468 16.3872 1.26074 16.0963 1.26074C15.8054 1.26074 15.5145 1.45468 15.4175 1.74559L13.769 6.8365H8.43567C8.14476 6.8365 7.85386 7.03044 7.75689 7.32135C7.65992 7.61226 7.75689 7.95165 7.99931 8.14559L12.3145 11.2971L10.666 16.388C10.569 16.6789 10.666 17.0183 10.9084 17.2123C11.1508 17.4062 11.4902 17.4062 11.7326 17.2123L16.0478 14.0607L20.3629 17.2123C20.6054 17.4062 20.9448 17.4062 21.1872 17.2123C21.4296 17.0183 21.5266 16.7274 21.4296 16.388L19.8781 11.2971L24.1933 8.14559C24.4842 7.95165 24.5811 7.66074 24.4842 7.36983ZM19.1508 10.6183C18.9084 10.8123 18.8114 11.1032 18.9084 11.4426L20.3629 15.9517L16.5326 13.1395C16.2902 12.9456 15.9508 12.9456 15.7084 13.1395L11.8781 15.9517L13.3326 11.4426C13.4296 11.1517 13.3326 10.8123 13.0902 10.6183L9.21143 7.8062H13.9629C14.2539 7.8062 14.5448 7.61226 14.6417 7.32135L16.0963 2.81226L17.5508 7.32135C17.6478 7.61226 17.9387 7.8062 18.2296 7.8062H22.9811L19.1508 10.6183Z" fill="#FF9900"></path>
    <path d="M31.1756 11.5397C31.0786 11.2973 30.8362 11.1034 30.5938 11.1034H27.8301L26.9574 8.48519C26.8604 8.24277 26.618 8.04883 26.3756 8.04883C26.1332 8.04883 25.8907 8.19428 25.7938 8.48519L24.9695 11.1519H22.2059C21.9635 11.1519 21.721 11.3458 21.6241 11.5882C21.5271 11.8306 21.6241 12.1216 21.8665 12.267L24.0968 13.867L23.2241 16.4852C23.1271 16.7276 23.2241 17.0185 23.4665 17.164C23.6604 17.3094 23.9513 17.3094 24.1938 17.164L26.4241 15.564L28.6544 17.164C28.8483 17.3094 29.1392 17.3094 29.3816 17.164C29.5756 17.0185 29.6726 16.7276 29.6241 16.4852L28.7513 13.867L30.9817 12.267C31.1756 12.0731 31.2241 11.8306 31.1756 11.5397ZM27.9271 13.2367C27.7332 13.3822 27.6362 13.6731 27.6847 13.9155L28.2665 15.7094L26.715 14.5943C26.521 14.4488 26.2301 14.4488 25.9877 14.5943L24.4362 15.7094L25.018 13.9155C25.115 13.6731 25.018 13.3822 24.7756 13.2367L23.321 12.1216H25.212C25.4544 12.1216 25.6968 11.9761 25.7938 11.6852L26.3756 9.89125L26.9574 11.6852C27.0544 11.9276 27.2968 12.1216 27.5392 12.1216H29.4301L27.9271 13.2367Z" fill="#FF9900"></path>
    <path d="M10.618 11.5397C10.521 11.2973 10.2786 11.1034 10.0362 11.1034H7.27252L6.39979 8.48519C6.30282 8.24277 6.0604 8.04883 5.81797 8.04883C5.57555 8.04883 5.33312 8.19428 5.23615 8.48519L4.41191 11.1519H1.64827C1.40585 11.1519 1.16343 11.2973 1.06646 11.5882C0.969486 11.8306 1.06646 12.1216 1.30888 12.267L3.53918 13.867L2.66646 16.4852C2.56949 16.7276 2.66646 17.0185 2.90888 17.164C3.10282 17.3094 3.39373 17.3094 3.63615 17.164L5.86646 15.564L8.09676 17.164C8.2907 17.3094 8.58161 17.3094 8.82403 17.164C9.01797 17.0185 9.11494 16.7276 9.06646 16.4852L8.19373 13.867L10.424 12.267C10.618 12.0731 10.6665 11.8306 10.618 11.5397ZM7.36949 13.2367C7.17555 13.3822 7.07858 13.6731 7.12706 13.9155L7.70888 15.7094L6.15737 14.5943C6.0604 14.4973 5.91494 14.4973 5.81797 14.4973C5.67252 14.4973 5.57555 14.5458 5.47858 14.5943L3.92706 15.7094L4.50888 13.867C4.60585 13.6246 4.50888 13.3337 4.26646 13.1882L2.76343 12.1216H4.65434C4.94524 12.1216 5.13918 11.9276 5.23615 11.6852L5.81797 9.89125L6.39979 11.6852C6.49676 11.9276 6.6907 12.1216 6.98161 12.1216H8.87252L7.36949 13.2367Z" fill="#FF9900"></path>
  </symbol>
  <symbol fill="none" xmlns="http://www.w3.org/2000/svg" viewBox="0 0 32 32" id="icon-rental">
    <g clip-path="url(#clip0_1_121)">
      <path d="M31.6499 23.0349L28.6711 21.9507C28.3967 21.8513 28.0938 21.9932 27.9945 22.2677L27.8137 22.7638L24.3628 21.5054C24.2761 21.4729 24.1822 21.4649 24.0911 21.4817L16.9113 22.7496C16.2605 22.8654 15.7014 23.2787 15.3991 23.8663L12.1056 22.665C11.5796 22.4715 10.9976 22.4973 10.4907 22.7364C9.84654 23.037 9.39639 23.6401 9.29139 24.3431C9.15983 25.3605 9.76245 26.3302 10.7332 26.6627L21.5821 30.6115C21.6399 30.6329 21.7013 30.644 21.763 30.6437C21.8205 30.6437 21.8775 30.6342 21.9319 30.6159L24.9618 29.593L25.2843 29.7101L25.1034 30.2067C25.0041 30.4812 25.146 30.7843 25.4205 30.8836L28.3998 31.9676C28.4573 31.9891 28.5184 32.0001 28.5798 31.9999C28.8019 32.0001 29.0006 31.8611 29.0764 31.6524L31.9675 23.7085C32.0647 23.4348 31.9229 23.134 31.6499 23.0349ZM24.799 28.5341L21.7692 29.5569L11.0943 25.6711C10.6006 25.5068 10.2856 25.0228 10.3357 24.5046C10.3803 24.1888 10.565 23.9102 10.8384 23.7459C11.1119 23.5818 11.4447 23.5501 11.7442 23.6595L15.1721 24.9067C15.1739 25.0043 15.1816 25.1015 15.1958 25.1977C15.403 26.3436 16.4947 27.1088 17.6424 26.9122L23.5904 25.8636L23.4065 24.8226L17.4613 25.8715C16.8889 25.9688 16.344 25.5891 16.2372 25.0182C16.2153 24.8977 16.2161 24.7739 16.2398 24.6537C16.2437 24.6361 16.2468 24.6186 16.2488 24.6008C16.2558 24.5556 16.2679 24.5115 16.2852 24.4692C16.415 24.1145 16.7235 23.8558 17.0952 23.7892L24.1345 22.5479L27.4525 23.7549L25.6454 28.7211L25.1488 28.541C25.0363 28.4992 24.913 28.4967 24.799 28.5341ZM28.2617 30.7959L26.2759 30.0731L28.8053 23.1226L30.7914 23.8452L28.2617 30.7959Z" fill="#FF9900"></path>
      <path d="M12.4087 8.52232C12.5793 9.1466 12.8937 9.72239 13.3269 10.203C13.3189 10.2453 13.3132 10.2879 13.3106 10.3309V13.2081C13.3106 14.0834 14.02 14.7931 14.8956 14.7931V20.0763C14.8943 20.2775 15.0078 20.4619 15.1876 20.5517L16.2442 21.08C16.3931 21.1543 16.568 21.1543 16.7166 21.08L17.7732 20.5517C17.9533 20.4619 18.0665 20.2775 18.0655 20.0763V14.7931C18.9408 14.7931 19.6505 14.0834 19.6505 13.2081V10.3309C19.6476 10.2848 19.6417 10.2388 19.6329 10.1934C19.9858 9.8052 20.2608 9.35272 20.443 8.86051C21.2231 8.99156 22.0039 8.63324 22.4136 7.95659C22.9159 7.12566 22.7784 6.05793 22.0819 5.38153L17.7823 1.08297C17.0904 0.387484 16.1488 -0.00256699 15.1675 1.27152e-05H9.61235C9.54064 -0.000245255 9.46995 0.014459 9.40417 0.0428358L5.80832 1.58498H5.38577V0.528336C5.38577 0.236571 5.14921 1.27152e-05 4.85744 1.27152e-05H0.630862C0.339098 1.27152e-05 0.102539 0.236571 0.102539 0.528336V8.9815C0.102539 9.27327 0.339098 9.50982 0.630862 9.50982H4.85744C5.14921 9.50982 5.38577 9.27327 5.38577 8.9815V7.92486H5.4629C5.84108 9.19278 7.54008 10.0381 9.08403 10.0381C10.3649 10.0645 11.5884 9.50673 12.4087 8.52232ZM4.32912 8.45318H1.15918V1.05666H4.32912V8.45318ZM17.0089 19.7497L16.4805 20.0139L15.9522 19.7497V14.7931H17.0089V19.7497ZM18.5938 13.2081C18.5938 13.4998 18.3573 13.7364 18.0655 13.7364H14.8956C14.6038 13.7364 14.3673 13.4998 14.3673 13.2081V11.0515C14.7225 11.2583 15.1066 11.4116 15.5067 11.5057C15.6894 11.9502 16.1473 12.217 16.6237 12.1566C17.1005 12.0965 17.4776 11.7242 17.5439 11.2483C17.6102 10.7726 17.3491 10.3113 16.9072 10.123C16.4651 9.93496 15.9517 10.0663 15.6548 10.4439C15.3568 10.3658 15.0718 10.2443 14.8094 10.083C15.3187 9.77424 15.8888 9.5787 16.4805 9.50982C17.239 9.61637 17.9623 9.89755 18.5938 10.3309V13.2081ZM18.9872 9.33698C18.2319 8.85123 17.3736 8.54863 16.4805 8.45318C15.589 8.54811 14.732 8.85019 13.9777 9.33492C13.6555 8.92475 13.4422 8.43976 13.3576 7.92486H15.9522C16.7261 7.93259 17.4392 7.50591 17.798 6.82023L19.2775 8.29943C19.3365 8.35463 19.399 8.40597 19.4645 8.45318C19.3556 8.77229 19.1944 9.07102 18.9872 9.33698ZM18.0405 5.56804C17.9912 5.13568 17.8081 4.72938 17.5171 4.40563C18.712 4.8207 19.546 5.90624 19.6389 7.16771L18.0405 5.56804ZM11.7256 7.39653C11.7256 8.1965 10.417 8.9815 9.08403 8.9815C7.7511 8.9815 6.44241 8.1965 6.44241 7.39653C6.44241 7.10477 6.20585 6.86821 5.91409 6.86821H5.38577V2.64163H5.91409C5.98555 2.64189 6.05649 2.62718 6.12227 2.5988L9.71786 1.05666H15.1649C15.8666 1.05408 16.5404 1.33269 17.0352 1.83005L21.3337 6.12861C21.6812 6.45314 21.7594 6.97424 21.5223 7.38647C21.3459 7.66585 21.0373 7.83353 20.7071 7.82966C20.6986 7.82966 20.6906 7.82966 20.6821 7.82966C20.6981 7.68598 20.7064 7.54125 20.7071 7.39653C20.7046 5.06345 18.8136 3.17253 16.4805 3.16995C15.7706 3.17098 15.0725 3.35285 14.4521 3.69827H10.1407V4.75492H15.9522C16.5358 4.75492 17.0089 5.22804 17.0089 5.81156C17.0089 6.39509 16.5358 6.86821 15.9522 6.86821H12.254C11.9622 6.86821 11.7256 7.10477 11.7256 7.39653Z" fill="#FF9900"></path>
    </g>
    <defs>
      <clipPath id="clip0_1_121">
        <rect width="32" height="32" fill="white"></rect>
      </clipPath>
    </defs>
  </symbol>
  <symbol fill="none" xmlns="http://www.w3.org/2000/svg" viewBox="0 0 36 36" id="icon-rent">
    <g clip-path="url(#clip0_1_82)">
      <path d="M3.90603 33.607H32.1744C33.1931 33.6089 34.1702 33.2037 34.8888 32.4813C35.607 31.7593 36.0071 30.78 35.9999 29.7613V20.0164C35.9999 17.885 34.3061 16.1305 32.1744 16.1305H30.9944L20.6183 6.42269C20.8036 6.03919 20.8996 5.61858 20.8993 5.19262C20.8983 3.61366 19.6173 2.33451 18.0383 2.33545C16.4594 2.33639 15.1802 3.61743 15.1812 5.19639C15.1809 5.6211 15.2768 6.04014 15.4621 6.42206L5.08608 16.1305H3.90603C1.77432 16.1305 0 17.885 0 20.0164V29.7613C0 31.893 1.77432 33.607 3.90603 33.607ZM18.0402 3.62718C18.9076 3.62718 19.6107 4.33031 19.6107 5.19765C19.6107 6.06499 18.9076 6.76811 18.0402 6.76811C17.1729 6.76811 16.4698 6.06499 16.4698 5.19765C16.4707 4.33062 17.1732 3.62813 18.0402 3.62718ZM16.2706 7.43097C17.305 8.25962 18.7764 8.25867 19.8098 7.42845L29.109 16.1305H6.97146L16.2706 7.43097ZM34.7113 29.7412C34.7113 31.1644 33.5574 32.3184 32.1341 32.3184H3.86576C2.44253 32.3184 1.28859 31.1644 1.28859 29.7412V19.9963C1.28859 18.573 2.44253 17.4191 3.86576 17.4191H32.1341C33.5574 17.4191 34.7113 18.573 34.7113 19.9963V29.7412Z" fill="#FF9900"></path>
      <path d="M8.4969 27.7621C8.81087 27.7621 9.10093 27.6331 9.10093 27.3755V25.4728H9.67287L10.7762 27.596C10.8539 27.7442 11.0121 27.8319 11.1788 27.82C11.5491 27.82 11.9682 27.4771 11.9682 27.1628C11.9688 27.1109 11.9549 27.0596 11.9279 27.0156L10.9451 25.2343C11.5089 25.0169 11.9197 24.4878 11.9197 23.5858C11.9197 22.273 11.042 21.8486 9.93839 21.8486H8.27134C8.16752 21.8515 8.06874 21.8958 7.99764 21.972C7.92654 22.0478 7.88879 22.1491 7.89288 22.2532V27.3751C7.89288 27.6331 8.18294 27.7621 8.4969 27.7621ZM9.10093 22.9761H9.93839C10.3895 22.9761 10.6632 23.1775 10.6632 23.7412C10.6632 24.305 10.3895 24.5063 9.93839 24.5063H9.10093V22.9761Z" fill="#FF9900"></path>
      <path d="M13.9411 27.7278H16.808C17.0738 27.7278 17.1865 27.4702 17.1865 27.2125C17.1865 26.9146 17.0496 26.6808 16.808 26.6808H14.6577V25.3117H15.8576C16.1234 25.3117 16.2364 25.0541 16.2364 24.8367C16.2364 24.579 16.0992 24.3453 15.8576 24.3453H14.6577V22.9761H16.808C17.0496 22.9761 17.1865 22.7024 17.1865 22.4045C17.1865 22.1466 17.0738 21.8486 16.808 21.8486H13.9411C13.6671 21.8486 13.3691 22.0034 13.3691 22.2611V27.3751C13.3691 27.6331 13.6671 27.7278 13.9411 27.7278Z" fill="#FF9900"></path>
      <path d="M19.1677 27.7624C19.4817 27.7624 19.812 27.6334 19.812 27.3757V24.6375L21.334 27.4242C21.4873 27.706 21.7289 27.7624 22.0186 27.7624C22.3329 27.7624 22.6308 27.6334 22.6308 27.3757V22.2538C22.6308 21.9879 22.3408 21.875 22.0268 21.875C21.7128 21.875 21.4228 21.9879 21.4228 22.2538V24.992L20.1059 22.5032C19.8001 21.9153 19.6167 21.875 19.1658 21.875C18.8516 21.875 18.5234 21.9958 18.5234 22.2616V27.3757C18.5234 27.6334 18.8538 27.7624 19.1677 27.7624Z" fill="#FF9900"></path>
      <path d="M24.3384 22.9761H25.4499V27.3755C25.4499 27.6331 25.7802 27.7621 26.0942 27.7621C26.4082 27.7621 26.7385 27.6331 26.7385 27.3755V22.9761H27.8175C28.0592 22.9761 28.1963 22.7103 28.1963 22.4045C28.1963 22.1387 28.0834 21.8486 27.8175 21.8486H24.3384C24.0726 21.8486 23.96 22.1387 23.96 22.4045C23.96 22.7103 24.0968 22.9761 24.3384 22.9761Z" fill="#FF9900"></path>
    </g>
    <defs>
      <clipPath id="clip0_1_82">
        <rect width="36" height="36" fill="white"></rect>
      </clipPath>
    </defs>
  </symbol>
  <symbol fill="none" xmlns="http://www.w3.org/2000/svg" viewBox="0 0 32 32" id="icon-scenery">
    <path d="M31.3981 2.15527H0.601934C0.269426 2.15527 0 2.4247 0 2.75721V27.1635C0 27.9281 0.870557 28.304 1.62891 28.5461C2.43783 28.8044 3.58255 29.0343 5.03136 29.2299C7.96567 29.6261 11.8611 29.8442 16 29.8442C20.139 29.8442 24.0344 29.626 26.9686 29.2299C28.4174 29.0343 29.5622 28.8043 30.371 28.5461C31.1294 28.304 32 27.9281 32 27.1635V2.75721C32 2.42478 31.7305 2.15527 31.3981 2.15527ZM20.3723 22.9554C19.2172 22.7285 17.6895 22.6035 16.0704 22.6035C14.4515 22.6035 12.9238 22.7285 11.7686 22.9554C11.5174 23.0047 11.2572 23.0626 11.0072 23.134L15.1119 3.35914H17.0289L21.1336 23.134C20.8836 23.0626 20.6235 23.0048 20.3723 22.9554ZM21.0527 24.3683C20.3099 24.6271 18.6229 24.9291 16.0705 24.9291C13.5181 24.9291 11.8312 24.627 11.0884 24.3683C11.8312 24.1095 13.5181 23.8075 16.0705 23.8075C18.6228 23.8075 20.3099 24.1095 21.0527 24.3683ZM5.24702 3.35914H8.47956C8.57146 3.9764 8.77017 5.86511 8.19585 8.05133C7.44191 10.9203 5.70224 13.1459 3.0136 14.6915C4.20447 12.9054 4.96684 10.6549 5.24958 8.04732C5.47944 5.92779 5.33731 4.14703 5.24702 3.35914ZM1.20387 17.3141C2.44225 18.178 4.91908 20.2976 5.34926 23.66C4.73072 23.3848 3.91257 23.1002 3.17564 23.1002C2.42467 23.1002 1.71599 23.3677 1.20387 23.6279V17.3141ZM3.83528 17.9973C3.22404 17.3498 2.61432 16.8482 2.12226 16.4885C6.87015 14.382 8.68189 10.9387 9.36015 8.35728C9.94378 6.13574 9.80582 4.20787 9.69547 3.35922H13.8824L10.6484 18.939H4.63328C4.38898 18.6163 4.12292 18.302 3.83528 17.9973ZM18.2585 3.35914H22.2602C22.1498 4.20779 22.0118 6.13574 22.5954 8.3572C23.2736 10.9386 25.0854 14.3819 29.8334 16.4884C29.3413 16.848 28.7317 17.3496 28.1203 17.9972C27.8327 18.3019 27.5667 18.6162 27.3223 18.939H21.4925L18.2585 3.35914ZM26.7087 3.35914C26.6184 4.14695 26.4763 5.92771 26.7061 8.04732C26.9888 10.6547 27.7511 12.9052 28.9417 14.6912C26.2684 13.1541 24.5328 10.9443 23.772 8.0978C23.1857 5.90404 23.385 3.98379 23.4765 3.35914H26.7087ZM28.0836 19.9335C28.1043 19.9095 28.1228 19.8838 28.1395 19.8569C28.3878 19.5137 28.6633 19.1784 28.9689 18.8522C29.6399 18.1361 30.3177 17.612 30.7961 17.2828V23.6507C30.2811 23.3836 29.5529 23.1002 28.78 23.1002C28.0424 23.1002 27.2236 23.3854 26.6047 23.6607C26.7708 22.3343 27.2662 21.0874 28.0836 19.9335ZM30.7961 15.1216C28.8436 12.9621 28.1418 10.0886 27.9062 7.9478C27.6706 5.80612 27.8442 3.99197 27.9219 3.35914H30.7961V15.1216ZM4.03368 3.35914C4.19395 4.67408 4.76001 11.0932 1.20387 15.0743V3.35914H4.03368ZM26.2278 28.1112C23.4208 28.4525 19.7885 28.6404 16 28.6404C12.2114 28.6404 8.57908 28.4525 5.77214 28.1112C2.24361 27.6822 1.38348 27.1903 1.20387 27.051V25.0257C1.43228 24.8662 2.29939 24.3042 3.17564 24.3042C4.05158 24.3042 5.29645 24.9453 5.70176 25.1922C5.79799 25.2509 5.90682 25.2805 6.01565 25.2805C6.11709 25.2805 6.21854 25.255 6.31011 25.2036C6.5 25.0971 6.61758 24.8963 6.61758 24.6786C6.61758 23.0876 6.20907 21.5528 5.4215 20.1431H10.3986L9.56152 24.1756C9.55052 24.2285 9.54755 24.2811 9.55052 24.3326C9.55004 24.3446 9.54891 24.3563 9.54891 24.3684C9.54891 25.2342 10.7351 25.5782 11.7686 25.7813C12.9238 26.0081 14.4515 26.133 16.0704 26.133C17.6895 26.133 19.2172 26.0081 20.3723 25.7813C21.4058 25.5782 22.592 25.2342 22.592 24.3684C22.592 24.3563 22.5909 24.3446 22.5904 24.3326C22.5934 24.2811 22.5904 24.2285 22.5794 24.1756L21.7423 20.1431H26.534C25.7464 21.5527 25.338 23.0876 25.338 24.6786C25.338 24.8963 25.4555 25.0971 25.6454 25.2036C25.737 25.255 25.8384 25.2805 25.9399 25.2805C26.0487 25.2805 26.1576 25.251 26.2538 25.1922C26.6579 24.9452 27.8995 24.3042 28.7799 24.3042C29.7325 24.3042 30.6751 24.969 30.7961 25.0572V27.0511C30.6165 27.1903 29.7564 27.6822 26.2278 28.1112Z" fill="#FF9900"></path>
  </symbol>
  <symbol fill="none" xmlns="http://www.w3.org/2000/svg" viewBox="0 0 18 19" id="icon-star">
    <path d="M15.9623 6.45694L11.4992 5.80831L9.50411 1.76358C9.44962 1.65284 9.35997 1.56319 9.24923 1.5087C8.9715 1.37159 8.634 1.48585 8.49513 1.76358L6.50001 5.80831L2.03693 6.45694C1.91388 6.47452 1.80138 6.53253 1.71525 6.62042C1.61112 6.72744 1.55374 6.87143 1.55571 7.02074C1.55769 7.17006 1.61886 7.31247 1.72579 7.41671L4.95489 10.5649L4.192 15.0105C4.17411 15.1139 4.18556 15.2202 4.22504 15.3175C4.26452 15.4147 4.33045 15.4989 4.41537 15.5606C4.50028 15.6223 4.60078 15.6589 4.70546 15.6664C4.81014 15.6739 4.91482 15.6518 5.00763 15.6028L8.99962 13.504L12.9916 15.6028C13.1006 15.6608 13.2272 15.6802 13.3484 15.6591C13.6543 15.6064 13.86 15.3163 13.8072 15.0105L13.0443 10.5649L16.2734 7.41671C16.3613 7.33057 16.4193 7.21807 16.4369 7.09503C16.4844 6.78741 16.2699 6.50264 15.9623 6.45694Z" fill="#FFB800"></path>
  </symbol>
   <symbol fill="" xmlns="http://www.w3.org/2000/svg" viewBox="0 0 48 48" id="icon-chevron-right">
    <path d="M21.4139 35.4139L32.8279 23.9999L21.4139 12.5859L18.5859 15.4139L27.1719 23.9999L18.5859 32.5859L21.4139 35.4139Z" fill=""></path>
  </symbol>
  <symbol fill="" xmlns="http://www.w3.org/2000/svg" viewBox="0 0 48 48" id="icon-chevron-left">
    <path d="M26.5861 12.5861L15.1721 24.0001L26.5861 35.4141L29.4141 32.5861L20.8281 24.0001L29.4141 15.4141L26.5861 12.5861Z" fill=""></path>
  </symbol>
</svg>